<svg width="46" height="46" viewBox="0 0 46 46" fill="none" xmlns="http://www.w3.org/2000/svg">
<path fill-rule="evenodd" clip-rule="evenodd" d="M13.552 0.220874C15.9958 0.108374 16.7749 0.083374 22.9999 0.083374C29.2249 0.083374 30.0041 0.110457 32.4458 0.220874C34.8874 0.331291 36.5541 0.720874 38.0124 1.28546C39.5395 1.86254 40.9249 2.76462 42.0708 3.93129C43.2374 5.07504 44.1374 6.45837 44.7124 7.98754C45.2791 9.44588 45.6666 11.1125 45.7791 13.55C45.8916 15.998 45.9166 16.7771 45.9166 23C45.9166 29.225 45.8895 30.0042 45.7791 32.448C45.6687 34.8855 45.2791 36.5521 44.7124 38.0105C44.1374 39.5398 43.2359 40.9255 42.0708 42.0709C40.9249 43.2375 39.5395 44.1375 38.0124 44.7125C36.5541 45.2792 34.8874 45.6667 32.4499 45.7792C30.0041 45.8917 29.2249 45.9167 22.9999 45.9167C16.7749 45.9167 15.9958 45.8896 13.552 45.7792C11.1145 45.6688 9.44784 45.2792 7.9895 44.7125C6.46017 44.1375 5.07454 43.236 3.92909 42.0709C2.76321 40.9264 1.86099 39.5415 1.28534 38.0125C0.720752 36.5542 0.333252 34.8875 0.220752 32.45C0.108252 30.0021 0.083252 29.223 0.083252 23C0.083252 16.775 0.110335 15.9959 0.220752 13.5542C0.331169 11.1125 0.720752 9.44588 1.28534 7.98754C1.86184 6.45854 2.76475 5.07361 3.93117 3.92921C5.075 2.76359 6.45924 1.86138 7.98742 1.28546C9.44575 0.720874 11.1124 0.333374 13.5499 0.220874H13.552ZM32.2603 4.34587C29.8437 4.23546 29.1187 4.21254 22.9999 4.21254C16.8812 4.21254 16.1562 4.23546 13.7395 4.34587C11.5041 4.44796 10.2916 4.82087 9.48325 5.13546C8.4145 5.55212 7.64992 6.04588 6.84784 6.84796C6.08751 7.58765 5.50238 8.48813 5.13534 9.48337C4.82075 10.2917 4.44784 11.5042 4.34575 13.7396C4.23534 16.1563 4.21242 16.8813 4.21242 23C4.21242 29.1188 4.23534 29.8438 4.34575 32.2605C4.44784 34.4959 4.82075 35.7084 5.13534 36.5167C5.502 37.5105 6.08742 38.4125 6.84784 39.1521C7.58742 39.9125 8.4895 40.498 9.48325 40.8646C10.2916 41.1792 11.5041 41.5521 13.7395 41.6542C16.1562 41.7646 16.8791 41.7875 22.9999 41.7875C29.1208 41.7875 29.8437 41.7646 32.2603 41.6542C34.4958 41.5521 35.7083 41.1792 36.5166 40.8646C37.5853 40.448 38.3499 39.9542 39.152 39.1521C39.9124 38.4125 40.4978 37.5105 40.8645 36.5167C41.1791 35.7084 41.552 34.4959 41.6541 32.2605C41.7645 29.8438 41.7874 29.1188 41.7874 23C41.7874 16.8813 41.7645 16.1563 41.6541 13.7396C41.552 11.5042 41.1791 10.2917 40.8645 9.48337C40.4478 8.41463 39.9541 7.65004 39.152 6.84796C38.4123 6.08769 37.5118 5.50256 36.5166 5.13546C35.7083 4.82087 34.4958 4.44796 32.2603 4.34587ZM20.0728 30.0646C21.7075 30.7451 23.5278 30.837 25.2227 30.3245C26.9176 29.812 28.382 28.727 29.3658 27.2547C30.3496 25.7825 30.7917 24.0144 30.6167 22.2523C30.4417 20.4903 29.6603 18.8437 28.4062 17.5938C27.6067 16.7948 26.6399 16.183 25.5756 15.8024C24.5113 15.4219 23.3758 15.282 22.251 15.393C21.1261 15.5039 20.0398 15.8629 19.0703 16.4441C18.1009 17.0252 17.2723 17.8141 16.6443 18.7539C16.0163 19.6937 15.6045 20.7611 15.4385 21.8791C15.2725 22.9972 15.3565 24.1382 15.6844 25.2199C16.0123 26.3016 16.5759 27.2971 17.3348 28.1349C18.0936 28.9726 19.0287 29.6317 20.0728 30.0646ZM14.6708 14.6709C15.7646 13.5771 17.0631 12.7094 18.4922 12.1175C19.9213 11.5255 21.4531 11.2208 22.9999 11.2208C24.5468 11.2208 26.0785 11.5255 27.5076 12.1175C28.9368 12.7094 30.2353 13.5771 31.3291 14.6709C32.4229 15.7647 33.2905 17.0632 33.8825 18.4923C34.4745 19.9214 34.7791 21.4532 34.7791 23C34.7791 24.5469 34.4745 26.0786 33.8825 27.5078C33.2905 28.9369 32.4229 30.2354 31.3291 31.3292C29.1201 33.5382 26.124 34.7793 22.9999 34.7793C19.8759 34.7793 16.8798 33.5382 14.6708 31.3292C12.4617 29.1202 11.2207 26.1241 11.2207 23C11.2207 19.876 12.4617 16.8799 14.6708 14.6709ZM37.3916 12.975C37.6626 12.7194 37.8796 12.4119 38.0297 12.0708C38.1798 11.7298 38.2599 11.3621 38.2654 10.9895C38.2708 10.6169 38.2014 10.247 38.0613 9.90173C37.9213 9.55644 37.7133 9.24277 37.4498 8.97929C37.1864 8.71581 36.8727 8.50787 36.5274 8.36779C36.1821 8.2277 35.8122 8.15832 35.4396 8.16376C35.0671 8.16919 34.6994 8.24932 34.3583 8.39941C34.0173 8.5495 33.7098 8.76649 33.4541 9.03754C32.9568 9.56469 32.6846 10.2649 32.6951 10.9895C32.7057 11.7141 32.9982 12.406 33.5107 12.9185C34.0231 13.4309 34.715 13.7234 35.4396 13.734C36.1642 13.7446 36.8644 13.4723 37.3916 12.975Z" fill="black"/>
</svg>
