<svg width="49" height="40" viewBox="0 0 49 40" fill="none" xmlns="http://www.w3.org/2000/svg">
<path d="M48.2563 5.28537C46.5167 6.05621 44.648 6.57704 42.6834 6.81246C44.7105 5.59952 46.227 3.69051 46.9501 1.44162C45.0456 2.57285 42.9612 3.36911 40.7876 3.79579C39.3259 2.23509 37.3898 1.20064 35.2799 0.853028C33.17 0.505419 31.0044 0.864106 29.1193 1.8734C27.2342 2.88269 25.735 4.48613 24.8546 6.43476C23.9741 8.38339 23.7616 10.5682 24.2501 12.65C20.3911 12.4562 16.616 11.4532 13.1697 9.70601C9.72344 7.95883 6.68307 5.50654 4.2459 2.50829C3.41256 3.94579 2.9334 5.61246 2.9334 7.38746C2.93247 8.98536 3.32597 10.5588 4.07898 11.9682C4.83199 13.3775 5.92123 14.5792 7.25006 15.4666C5.70897 15.4176 4.20188 15.0012 2.85423 14.252V14.377C2.85408 16.6182 3.6293 18.7903 5.04836 20.525C6.46743 22.2596 8.44292 23.4498 10.6396 23.8937C9.21003 24.2806 7.71118 24.3376 6.25631 24.0604C6.8761 25.9887 8.08339 27.675 9.70916 28.8831C11.3349 30.0913 13.2978 30.7607 15.323 30.7979C11.8851 33.4967 7.63941 34.9606 3.26882 34.9541C2.49461 34.9543 1.72106 34.9091 0.952148 34.8187C5.38856 37.6712 10.5529 39.185 15.8271 39.1791C33.6813 39.1791 43.4417 24.3916 43.4417 11.5666C43.4417 11.15 43.4313 10.7291 43.4126 10.3125C45.3111 8.93949 46.9499 7.23932 48.2521 5.29162L48.2563 5.28537Z" fill="black"/>
</svg>
